# xmcd
# 
# Track frame offsets:
#     150
#     21750
#     38147
#     59032
#     74957
#     91687
#     114117
#     135060
#     160960
#     184332
#     206840
#     223832
# 
# Disc length: 3243
# 
# Revision: 4
# Processed by: cddbd v1.5.2PL0 Copyright (c) Steve Scherf et al.
# Submitted via: fre:ac v1.0.31
# 
DISCID=af0ca90c
DTITLE=Various Artist - Road Tested Disc 1
DYEAR=1995
DGENRE=Rock
TTITLE0=Bonnie Raitt with Bruce Hornsby - Thing Called Love
TTITLE1=Bonnie Raitt - Three Time Loser
TTITLE2=Bonnie Raitt - Love Letter
TTITLE3=Bonnie Raitt with Ruth Brown, Charles Brown and Kim Wilson - Never Make Your Move Too Soon
TTITLE4=Bonnie Raitt - Something to Talk About
TTITLE5=Bonnie Raitt - Matters of the Heart
TTITLE6=Bonnie Raitt - Shake a Little
TTITLE7=Bonnie Raitt - Have a Heart
TTITLE8=Bonnie Raitt - Love Me Like a Man
TTITLE9=Bonnie Raitt - The Kokomo Medley
TTITLE10=Bonnie Raitt - Louise
TTITLE11=Bonnie Raitt - Dimming of the Day
EXTD=Produced By: Dan Was and Bonnie Raitt\n\nRecorded Live on July 11, 12 and 13, 1995 at the Schnitzer Auditorium Portland, Oregon, and July 16, 18 and 19, 1995 at the Paramount Theater Oakland, California\n\nBonnie Raitt - Vocals/Acoustic and Slide Guitar/Ke
EXTD=yboards ("Feeling of Falling"]\nGlen Clark - Keyboards/Harmonica/Vocals\nDebra Dobkin - Percussion/Vocals\nRicky Fataar - Drums\nJames "Hutch" Hutchinson - Bass/Vocals\nMark T. Jordan - Keyboards/Vocals/Mandolin ("Longing...")/Guitar ("Something...")
EXTD=\nGeorge Marinelli - Electric and Acoustic Guitar/Vocals/Mandolin ("Louise") YEAR: 1995
EXTT0=with Bruce Hornsby, vocals and accordian
EXTT1=
EXTT2=
EXTT3=with Ruth Brown, vocals\nCharles Brown, vocals and piano\nKim Wilson, harmonica
EXTT4=
EXTT5=
EXTT6=
EXTT7=
EXTT8=
EXTT9=
EXTT10=
EXTT11=with Mark T Jordan, harmony vocal
PLAYORDER=
